<svg width="806" height="806" viewBox="0 0 806 806" fill="none" xmlns="http://www.w3.org/2000/svg">
<g filter="url(#filter0_i_247_835)">
<mask id="path-1-inside-1_247_835" fill="white">
<path d="M379.379 110.436C378.987 105.481 382.685 101.131 387.649 100.887C397.136 100.419 406.64 100.399 416.128 100.827C421.094 101.051 424.81 105.385 424.438 110.341L417.404 204.12C417.032 209.076 412.712 212.771 407.743 212.634C403.997 212.531 400.249 212.539 396.503 212.658C391.535 212.815 387.199 209.139 386.807 204.184L379.379 110.436Z"/>
</mask>
<path d="M379.379 110.436C378.987 105.481 382.685 101.131 387.649 100.887C397.136 100.419 406.64 100.399 416.128 100.827C421.094 101.051 424.81 105.385 424.438 110.341L417.404 204.12C417.032 209.076 412.712 212.771 407.743 212.634C403.997 212.531 400.249 212.539 396.503 212.658C391.535 212.815 387.199 209.139 386.807 204.184L379.379 110.436Z" stroke="url(#paint0_linear_247_835)" stroke-width="4" mask="url(#path-1-inside-1_247_835)"/>
</g>
<circle cx="402.142" cy="245.808" r="8.40404" fill="url(#paint1_linear_247_835)"/>
<path fill-rule="evenodd" clip-rule="evenodd" d="M398.504 210.617C400.121 207.815 404.165 207.815 405.782 210.617L421.248 237.405C422.865 240.206 420.844 243.708 417.609 243.708H416.738C416.812 244.31 416.85 244.924 416.85 245.546C416.85 253.813 410.148 260.516 401.88 260.516C393.613 260.516 386.911 253.813 386.911 245.546C386.911 244.924 386.949 244.31 387.022 243.708H386.677C383.442 243.708 381.421 240.206 383.038 237.405L398.504 210.617ZM402.142 256.314C407.944 256.314 412.647 251.61 412.647 245.809C412.647 240.007 407.944 235.303 402.142 235.303C396.341 235.303 391.637 240.007 391.637 245.809C391.637 251.61 396.341 256.314 402.142 256.314Z" fill="url(#paint2_linear_247_835)"/>
<defs>
<filter id="filter0_i_247_835" x="379.351" y="100.52" width="45.1135" height="116.143" filterUnits="userSpaceOnUse" color-interpolation-filters="sRGB">
<feFlood flood-opacity="0" result="BackgroundImageFix"/>
<feBlend mode="normal" in="SourceGraphic" in2="BackgroundImageFix" result="shape"/>
<feColorMatrix in="SourceAlpha" type="matrix" values="0 0 0 0 0 0 0 0 0 0 0 0 0 0 0 0 0 0 127 0" result="hardAlpha"/>
<feOffset dy="9"/>
<feGaussianBlur stdDeviation="2"/>
<feComposite in2="hardAlpha" operator="arithmetic" k2="-1" k3="1"/>
<feColorMatrix type="matrix" values="0 0 0 0 0 0 0 0 0 0 0 0 0 0 0 0 0 0 0.25 0"/>
<feBlend mode="normal" in2="shape" result="effect1_innerShadow_247_835"/>
</filter>
<linearGradient id="paint0_linear_247_835" x1="545.298" y1="805.041" x2="805.041" y2="259.743" gradientUnits="userSpaceOnUse">
<stop stop-color="#E65C00"/>
<stop offset="1" stop-color="#F9D423"/>
</linearGradient>
<linearGradient id="paint1_linear_247_835" x1="393.738" y1="237.404" x2="393.738" y2="254.212" gradientUnits="userSpaceOnUse">
<stop stop-color="#E65C00"/>
<stop offset="1" stop-color="#F9D423"/>
</linearGradient>
<linearGradient id="paint2_linear_247_835" x1="382.469" y1="208.516" x2="382.469" y2="260.516" gradientUnits="userSpaceOnUse">
<stop stop-color="#E65C00"/>
<stop offset="1" stop-color="#F9D423"/>
</linearGradient>
</defs>
</svg>
